<?xml version="1.0" encoding="UTF-8" standalone="no"?>
<!DOCTYPE svg PUBLIC "-//W3C//DTD SVG 1.1//EN" "http://www.w3.org/Graphics/SVG/1.1/DTD/svg11.dtd">
<svg width="100%" height="100%" viewBox="0 0 163 81" version="1.1" xmlns="http://www.w3.org/2000/svg" xmlns:xlink="http://www.w3.org/1999/xlink" xml:space="preserve" xmlns:serif="http://www.serif.com/" style="fill-rule:evenodd;clip-rule:evenodd;stroke-linejoin:round;stroke-miterlimit:2;">
    <g transform="matrix(1,0,0,1,-290.266,-54.2267)">
        <g transform="matrix(1,0,0,1,58.3774,-127.932)">
            <g id="ush">
                <path d="M302.665,253.87C302.473,251.518 302.377,249.454 302.377,247.678C302.377,242.734 302.881,238.75 303.889,235.726L304.825,233.206C305.737,232.438 307.501,231.742 310.117,231.118C312.733,230.494 315.433,230.182 318.217,230.182C317.785,230.95 317.233,232.018 316.561,233.386C315.889,234.754 315.109,237.19 314.221,240.694C313.333,244.198 312.889,247.366 312.889,250.198C312.889,250.918 312.913,251.614 312.961,252.286C313.441,252.142 314.137,251.554 315.049,250.522C315.961,249.49 316.753,248.326 317.425,247.03C319.345,243.526 320.881,238.798 322.033,232.846C325.777,234.526 329.713,235.366 333.841,235.366C332.497,239.062 331.393,242.866 330.529,246.778C329.665,250.69 329.137,253.678 328.945,255.742L328.729,258.838C327.385,258.358 325.909,257.386 324.301,255.922C322.693,254.458 321.505,252.91 320.737,251.278C320.497,251.758 319.945,252.514 319.081,253.546C318.217,254.578 317.401,255.43 316.633,256.102C314.569,257.878 312.409,258.958 310.153,259.342L302.665,253.87Z" style="fill:url(#_Linear1);fill-rule:nonzero;"/>
                <path d="M360.265,247.318C360.265,250.102 358.489,252.55 354.937,254.662C351.385,256.774 345.937,258.214 338.593,258.982C336.193,255.622 334.537,251.686 333.625,247.174C333.625,247.174 334.153,247.294 335.209,247.534C338.713,248.446 341.413,248.902 343.309,248.902C345.205,248.902 346.741,248.77 347.917,248.506C349.093,248.242 349.849,247.702 350.185,246.886C344.521,246.358 341.245,245.89 340.357,245.482C339.469,245.074 338.689,244.654 338.017,244.222C336.913,243.502 336.361,242.23 336.361,240.406C336.361,238.582 336.877,236.902 337.909,235.366C338.941,233.83 340.261,232.606 341.869,231.694C343.477,230.782 345.337,230.014 347.449,229.39C351.097,228.382 355.081,227.878 359.401,227.878L361.129,240.19C356.761,238.99 351.241,238.294 344.569,238.102C345.241,239.878 348.073,241.15 353.065,241.918C354.889,242.158 356.545,242.722 358.033,243.61C359.521,244.498 360.265,245.734 360.265,247.318Z" style="fill:url(#_Linear2);fill-rule:nonzero;"/>
                <path d="M385.969,229.894C388.801,229.894 391.585,233.086 394.321,239.47C392.017,242.542 390.289,246.742 389.137,252.07C388.657,254.134 388.393,256.198 388.345,258.262L387.913,258.262C384.121,258.262 381.649,256.558 380.497,253.15C380.065,251.902 379.849,250.63 379.849,249.334C379.849,246.502 380.521,243.046 381.865,238.966C378.649,241.75 375.577,246.19 372.649,252.286C372.457,253.39 372.265,255.142 372.073,257.542C369.337,256.966 367.297,256.174 365.953,255.166C364.705,254.254 363.961,253.51 363.721,252.934C363.817,248.518 364.261,243.55 365.053,238.03C365.845,232.51 366.601,228.082 367.321,224.746C368.041,221.41 368.449,219.718 368.545,219.67C370.849,218.95 373.189,218.386 375.565,217.978C377.941,217.57 379.729,217.342 380.929,217.294L382.729,217.294C379.657,224.158 377.065,231.886 374.953,240.478C376.777,237.214 378.661,234.634 380.605,232.738C382.549,230.842 384.337,229.894 385.969,229.894Z" style="fill:url(#_Linear3);fill-rule:nonzero;"/>
            </g>
            <g id="R">
                <path d="M283.441,213.406L285.731,206.553L302.273,214.784L299.319,224.804C297.999,226.391 296.474,227.824 294.745,229.102C289.033,233.326 282.481,236.11 275.089,237.454L268.73,244.396L259.805,233.078L266.589,228.982C267.637,228.733 268.646,228.437 269.617,228.094C272.881,226.942 275.329,225.55 276.961,223.918C280.321,220.75 282.337,217.774 283.009,214.99L283.441,213.406Z" style="fill:url(#_Linear4);fill-rule:nonzero;"/>
                <path d="M275.089,237.454C278.545,239.662 282.313,241.654 286.393,243.43C290.473,245.206 293.665,246.382 295.969,246.958L299.425,247.966C298.945,248.734 298.249,249.694 297.337,250.846C296.425,251.998 294.169,253.87 290.569,256.462C286.969,259.054 282.961,260.974 278.545,262.222C271.441,259.534 265.393,254.35 260.401,246.67C259.345,245.134 258.361,243.622 257.449,242.134C256.537,240.646 255.793,239.47 255.793,239.47C255.558,233.927 258.529,229.966 258.529,229.966C258.529,229.966 263.084,229.891 266.584,228.983C270.055,234.209 275.089,237.454 275.089,237.454Z" style="fill:url(#_Linear5);fill-rule:nonzero;"/>
                <path d="M283.441,213.406C280.177,212.062 273.838,209.285 261.905,209.187C248.954,209.081 237.073,212.398 237.073,212.398L231.889,193.966C236.017,190.894 240.433,188.59 245.137,187.054C255.217,183.79 265.441,182.158 275.809,182.158C277.345,182.446 279.697,183.43 282.865,185.11C286.033,186.79 288.793,188.614 291.145,190.582C293.497,192.55 296.017,195.382 298.705,199.078C301.393,202.774 303.553,206.878 305.185,211.39C304.313,216.688 302.352,221.166 299.302,224.824C293.417,217.265 283.441,213.406 283.441,213.406Z" style="fill:url(#_Linear6);fill-rule:nonzero;"/>
            </g>
        </g>
    </g>
    <defs>
        <linearGradient id="_Linear1" x1="0" y1="0" x2="1" y2="0" gradientUnits="userSpaceOnUse" gradientTransform="matrix(25.7456,-90.24,90.24,25.7456,322.603,286.987)"><stop offset="0" style="stop-color:black;stop-opacity:1"/><stop offset="1" style="stop-color:rgb(108,108,108);stop-opacity:1"/></linearGradient>
        <linearGradient id="_Linear2" x1="0" y1="0" x2="1" y2="0" gradientUnits="userSpaceOnUse" gradientTransform="matrix(25.7456,-90.24,90.24,25.7456,322.603,286.987)"><stop offset="0" style="stop-color:black;stop-opacity:1"/><stop offset="1" style="stop-color:rgb(108,108,108);stop-opacity:1"/></linearGradient>
        <linearGradient id="_Linear3" x1="0" y1="0" x2="1" y2="0" gradientUnits="userSpaceOnUse" gradientTransform="matrix(25.7456,-90.24,90.24,25.7456,322.603,286.987)"><stop offset="0" style="stop-color:black;stop-opacity:1"/><stop offset="1" style="stop-color:rgb(108,108,108);stop-opacity:1"/></linearGradient>
        <linearGradient id="_Linear4" x1="0" y1="0" x2="1" y2="0" gradientUnits="userSpaceOnUse" gradientTransform="matrix(34.2966,-40.0309,43.7273,37.4635,265.128,243.522)"><stop offset="0" style="stop-color:rgb(45,0,0);stop-opacity:1"/><stop offset="0.3" style="stop-color:rgb(143,58,58);stop-opacity:1"/><stop offset="0.6" style="stop-color:rgb(136,54,54);stop-opacity:1"/><stop offset="1" style="stop-color:rgb(45,0,0);stop-opacity:1"/></linearGradient>
        <linearGradient id="_Linear5" x1="0" y1="0" x2="1" y2="0" gradientUnits="userSpaceOnUse" gradientTransform="matrix(-43.7141,19.5717,-19.5717,-43.7141,292.971,236.746)"><stop offset="0" style="stop-color:rgb(250,70,70);stop-opacity:1"/><stop offset="1" style="stop-color:rgb(138,15,15);stop-opacity:1"/></linearGradient>
        <linearGradient id="_Linear6" x1="0" y1="0" x2="1" y2="0" gradientUnits="userSpaceOnUse" gradientTransform="matrix(-92.2483,11.3185,-11.3185,-92.2483,307.241,197.605)"><stop offset="0" style="stop-color:rgb(250,70,70);stop-opacity:1"/><stop offset="1" style="stop-color:rgb(138,15,15);stop-opacity:1"/></linearGradient>
    </defs>
</svg>
