<?xml version="1.0" encoding="UTF-8" standalone="no"?>
<!DOCTYPE svg PUBLIC "-//W3C//DTD SVG 1.1//EN" "http://www.w3.org/Graphics/SVG/1.1/DTD/svg11.dtd">
<svg width="100%" height="100%" viewBox="0 0 386 165" version="1.1" xmlns="http://www.w3.org/2000/svg" xmlns:xlink="http://www.w3.org/1999/xlink" xml:space="preserve" xmlns:serif="http://www.serif.com/" style="fill-rule:evenodd;clip-rule:evenodd;stroke-linejoin:round;stroke-miterlimit:2;">
    <g transform="matrix(1,0,0,1,-566.142,-30.4142)">
        <g transform="matrix(0.562611,0,0,0.562611,443.246,402.754)">
            <g transform="matrix(2.69176,0,0,2.69176,-687.347,-1899.19)">
                <g id="H" transform="matrix(0.660322,0,0,0.660322,-37.3326,439.612)">
                    <path d="M865.171,158.759C865.171,178.82 848.884,195.106 828.824,195.106L792.805,195.106L792.805,172.034L828.824,172.034C836.151,172.034 842.099,166.086 842.099,158.759L865.171,158.759ZM901.677,194.778L901.677,94.929L878.605,94.929L878.605,194.778L901.677,194.778ZM914.952,122.412L914.952,145.484C922.279,145.484 928.227,151.432 928.227,158.759L928.227,194.778L951.299,194.778L951.299,158.759C951.299,138.699 935.012,122.412 914.952,122.412ZM709.705,158.431L709.705,122.412L732.777,122.412L732.777,158.431C732.777,165.758 738.725,171.706 746.052,171.706C753.379,171.706 759.327,165.758 759.327,158.431L759.327,122.412L782.399,122.412L782.399,158.431C782.399,178.491 766.112,194.778 746.052,194.778C725.992,194.778 709.705,178.491 709.705,158.431ZM815.877,158.759C815.877,151.432 821.825,145.484 829.152,145.484L865.171,145.484L865.171,122.412L829.152,122.412C809.092,122.412 792.805,138.699 792.805,158.759L815.877,158.759Z" style="fill:rgb(77,77,77);"/>
                </g>
                <g transform="matrix(1,0,0,1,-10.194,69.212)">
                    <g>
                        <g transform="matrix(0.323843,0,0,0.323843,235.176,368.516)">
                            <path d="M467.291,254.163L616.101,402.972L493.582,402.972L431.406,340.797L344.368,254.163L344.368,253.759L467.291,254.163Z" style="fill:rgb(219,56,56);"/>
                        </g>
                        <g transform="matrix(0.323843,0,0,0.323843,235.176,368.516)">
                            <path d="M467.291,254.163L616.101,402.972L493.582,402.972L431.406,340.797L344.368,254.163L344.368,253.759L467.291,254.163Z" style="fill:url(#_Linear1);"/>
                        </g>
                    </g>
                    <g>
                        <g transform="matrix(1,0,0,1,3.36968,316.752)">
                            <path d="M394.032,132.524C399.492,129.934 403.271,124.37 403.271,117.93C403.271,109.021 396.037,101.787 387.128,101.787L343.328,101.787L343.328,73.732L387.128,73.732C411.522,73.732 431.327,93.536 431.327,117.93C431.327,132.086 424.658,144.696 414.294,152.787L394.032,132.524Z" style="fill:rgb(219,56,56);"/>
                        </g>
                        <g transform="matrix(0.945871,0,0,0.945871,-43.265,291.33)">
                            <path d="M459.592,134.518C479.755,134.943 496.795,148.171 502.904,166.395C499.957,175.188 494.466,182.817 487.306,188.406L465.884,166.984C471.657,164.246 475.652,158.364 475.652,151.555C475.652,142.474 468.544,135.04 459.592,134.518Z" style="fill:url(#_Radial2);"/>
                        </g>
                    </g>
                </g>
            </g>
        </g>
    </g>
    <defs>
        <linearGradient id="_Linear1" x1="0" y1="0" x2="1" y2="0" gradientUnits="userSpaceOnUse" gradientTransform="matrix(9.11841e-15,148.915,-81.772,5.00709e-15,435.198,254.058)"><stop offset="0" style="stop-color:rgb(114,37,37);stop-opacity:0.7"/><stop offset="0.51" style="stop-color:rgb(192,51,51);stop-opacity:0.18"/><stop offset="1" style="stop-color:rgb(218,56,56);stop-opacity:0"/></linearGradient>
        <radialGradient id="_Radial2" cx="0" cy="0" r="1" gradientUnits="userSpaceOnUse" gradientTransform="matrix(33.4343,-40.8435,40.8435,33.4343,453.265,186.051)"><stop offset="0" style="stop-color:rgb(218,56,56);stop-opacity:0"/><stop offset="0.49" style="stop-color:rgb(192,51,51);stop-opacity:0.18"/><stop offset="1" style="stop-color:rgb(114,37,37);stop-opacity:0.7"/></radialGradient>
    </defs>
</svg>
