<?xml version="1.0" encoding="UTF-8" standalone="no"?><!DOCTYPE svg PUBLIC "-//W3C//DTD SVG 1.1//EN" "http://www.w3.org/Graphics/SVG/1.1/DTD/svg11.dtd"><svg width="100%" height="100%" viewBox="0 0 544 251" version="1.1" xmlns="http://www.w3.org/2000/svg" xmlns:xlink="http://www.w3.org/1999/xlink" xml:space="preserve" xmlns:serif="http://www.serif.com/" style="fill-rule:evenodd;clip-rule:evenodd;stroke-linejoin:round;stroke-miterlimit:2;"><g id="full-logo"><path id="logo" d="M0,0l142.603,0c31.277,0 54.24,8.558 69.355,24.328c15.427,16.095 23.112,35.107 23.112,57.013c0,24.993 -8.532,45.168 -25.239,60.672c-8.969,8.323 -19.228,14.431 -30.802,18.264l56.449,89.147l-77.54,0l-91.498,-144.498l72.397,0c9.355,0 16.661,-1.758 21.584,-6.353c4.463,-4.165 6.453,-9.802 6.453,-16.719c0,-6.405 -2.073,-11.913 -6.305,-16.488c-4.648,-5.025 -13.354,-6.413 -25.497,-6.413l-97.742,0l-37.33,-58.953Z" style="fill:url(#_Linear1);"/><g><path d="M411.492,220.583c0,-3.285 -1.627,-5.872 -4.88,-7.763c-3.254,-1.89 -8.476,-3.579 -15.665,-5.066c-23.922,-5.02 -35.884,-15.184 -35.884,-30.492c0,-8.925 3.703,-16.377 11.109,-22.358c7.406,-5.981 17.09,-8.971 29.052,-8.971c12.767,0 22.977,3.006 30.631,9.018c7.654,6.011 11.481,13.82 11.481,23.426l-26.866,0c0,-3.842 -1.24,-7.018 -3.719,-9.528c-2.479,-2.51 -6.353,-3.765 -11.62,-3.765c-4.525,0 -8.026,1.022 -10.505,3.067c-2.479,2.046 -3.719,4.649 -3.719,7.809c0,2.975 1.41,5.377 4.23,7.205c2.82,1.828 7.576,3.409 14.27,4.741c6.693,1.333 12.333,2.836 16.919,4.509c14.193,5.206 21.289,14.223 21.289,27.052c0,9.173 -3.936,16.594 -11.806,22.265c-7.871,5.671 -18.035,8.506 -30.493,8.506c-8.428,0 -15.912,-1.503 -22.45,-4.508c-6.539,-3.006 -11.667,-7.128 -15.386,-12.365c-3.718,-5.237 -5.578,-10.892 -5.578,-16.965l25.473,0c0.247,4.772 2.014,8.428 5.298,10.969c3.285,2.541 7.685,3.812 13.201,3.812c5.144,0 9.033,-0.976 11.667,-2.929c2.634,-1.952 3.951,-4.508 3.951,-7.669Z" style="fill:#3f3938;fill-rule:nonzero;"/><path d="M337.426,149.262l0.001,0.112l0,56.765c0,23.962 -19.784,43.415 -44.151,43.415c-24.367,0 -44.15,-19.453 -44.15,-43.415l0,-56.765l0,-0.112l26.695,0l0,57.703c0,9.163 7.566,16.603 16.885,16.603c9.318,0 16.884,-7.44 16.884,-16.603l0,-57.703l27.836,0Z" style="fill:#3f3938;"/><path d="M481.45,151.643c5.353,-2.271 11.256,-3.53 17.455,-3.53c24.367,0 44.15,19.454 44.15,43.415l0,56.765l0,0.112l-26.695,0l0,-57.703c0,-9.163 -7.566,-16.603 -16.885,-16.603c-9.318,0 -16.884,7.44 -16.884,16.603l0,57.703l-27.836,0l-0.001,-0.112l0,-143.147l0.001,-0.112l26.695,0l0,46.609Z" style="fill:#3f3938;"/></g></g><defs><linearGradient id="_Linear1" x1="0" y1="0" x2="1" y2="0" gradientUnits="userSpaceOnUse" gradientTransform="matrix(1.51184e-14,246.902,-246.902,1.51184e-14,113.34,1.14392)"><stop offset="0" style="stop-color:#ff4949;stop-opacity:1"/><stop offset="1" style="stop-color:#7d0001;stop-opacity:1"/></linearGradient></defs></svg>
